<svg
  width="100"
  height="100"
  viewBox="0 0 100 100"
  fill="none"
  xmlns="http://www.w3.org/2000/svg"
>
  <!-- Body -->
  <path
    d="M50 85C65 85 75 75 75 60C75 45 65 35 50 35C35 35 25 45 25 60C25 75 35 85 50 85Z"
    fill="#FFD700"
  />
  <!-- Head -->
  <path
    d="M75 60C75 50 85 45 85 35C85 25 75 20 65 25C60 30 65 40 70 45C65 50 70 55 75 60Z"
    fill="#FFD700"
  />
  <!-- Beak -->
  <path
    d="M85 35L95 30L90 25L85 35Z"
    fill="#FF8C00"
  />
  <!-- Eye -->
  <circle
    cx="80"
    cy="40"
    r="3"
    fill="black"
  />
  <!-- Wing -->
  <path
    d="M40 60C40 50 30 45 30 55C30 65 40 70 50 65C60 60 55 50 45 55C50 60 45 65 40 60Z"
    fill="#FFA500"
  />
  <!-- Feet -->
  <path
    d="M40 85L35 95L45 95L40 85Z"
    fill="#FF8C00"
  />
  <path
    d="M60 85L55 95L65 95L60 85Z"
    fill="#FF8C00"
  />
</svg>
